<svg width="48" height="48" viewBox="0 0 48 48" fill="none" xmlns="http://www.w3.org/2000/svg">
  <path fill-rule="evenodd" clip-rule="evenodd" d="M14 0C6.26801 0 0 6.26801 0 14V34C0 41.732 6.26801 48 14 48H34C41.732 48 48 41.732 48 34V14C48 6.26801 41.732 0 34 0H14ZM19.2188 8.59375C17.7541 8.59375 16.5625 9.78534 16.5625 11.25V13.9062H12.3125C10.8478 13.9062 9.65625 15.0978 9.65625 16.5625V19.75V26.125V33.5625C9.65625 37.7134 10.7336 39.4062 13.375 39.4062H13.9062H32.5C35.7223 39.4062 38.3438 36.7848 38.3438 33.5625V26.125V14.4375V11.25C38.3438 9.78534 37.1522 8.59375 35.6875 8.59375H19.2188ZM10.7188 16.5625C10.7188 15.6835 11.4335 14.9688 12.3125 14.9688H16.5625V20.2812H12.8438V21.3438H16.5625V22.9375H12.8438V24H16.5625V25.5938H12.8438V26.6562H16.5625V28.25H12.8438V29.3125H16.5625V30.9062H12.8438V31.9688H16.5625V33.5625H12.8438V34.625H16.5303C16.29 38.3438 14.76 38.3438 13.9062 38.3438H13.375C11.9752 38.3438 10.7188 37.978 10.7188 33.5625V26.125V19.75V16.5625ZM37.2812 11.25V14.4375V26.125V33.5625C37.2812 36.1991 35.1366 38.3438 32.5 38.3438H16.4794C17.2598 37.4107 17.625 35.8431 17.625 33.5625V31.4375V14.4375V11.25C17.625 10.371 18.3398 9.65625 19.2188 9.65625H35.6875C36.5665 9.65625 37.2812 10.371 37.2812 11.25ZM19.75 32.5H34.625V31.4375H19.75V32.5ZM34.625 35.1562H19.75V34.0938H34.625V35.1562ZM30.7499 23.5158C30.7499 25.5024 29.1338 27.1185 27.1472 27.1185V28.7813C30.0505 28.7813 32.4127 26.4191 32.4127 23.5158H30.7499ZM27.1405 22.3121C30.0438 22.3121 32.406 19.9499 32.406 17.0466C32.406 14.1433 30.0438 11.7811 27.1405 11.7811C24.237 11.7811 21.8751 14.1433 21.8751 17.0466C21.8751 19.9499 24.237 22.3121 27.1405 22.3121ZM27.1405 20.6493C25.1539 20.6493 23.5379 19.0332 23.5379 17.0466C23.5379 15.0603 25.1539 13.444 27.1405 13.444C29.1269 13.444 30.7432 15.0603 30.7432 17.0466C30.7432 19.0332 29.1269 20.6493 27.1405 20.6493Z" fill="white"/>
</svg>
